<?xml version="1.0" ?><svg id="Layer_1" style="enable-background:new 0 0 128 128;" version="1.1" viewBox="0 0 128 128" xml:space="preserve" xmlns="http://www.w3.org/2000/svg" xmlns:xlink="http://www.w3.org/1999/xlink"><g><path d="M28.8,91.7c9.7,9.7,22.5,14.6,35.2,14.6s25.5-4.9,35.2-14.6L126.9,64L99.2,36.3c-19.4-19.4-51.1-19.4-70.5,0L1.1,64   L28.8,91.7z M34.2,41.7c16.4-16.4,43.2-16.4,59.6,0L116.1,64L93.8,86.3c-16.4,16.4-43.2,16.4-59.6,0L11.9,64L34.2,41.7z"/><path d="M64,85c11.6,0,21-9.4,21-21s-9.4-21-21-21v8c7.2,0,13,5.8,13,13s-5.8,13-13,13s-13-5.8-13-13h-8C43,75.6,52.4,85,64,85z"/></g></svg>